{
  "accessors": [
    {
      "bufferView": 1,
      "componentType": 5126,
      "count": 28662,
      "max": [
        31.713703155517578,
        14.091156959533691,
        28.3957462310791
      ],
      "min": [
        -8.423554420471191,
        -0.07339999824762344,
        -29.19202423095703
      ],
      "type": "VEC3"
    },
    {
      "bufferView": 1,
      "byteOffset": 343944,
      "componentType": 5126,
      "count": 28662,
      "max": [
        0.999942421913147,
        0.9898032546043396,
        0.9999106526374817
      ],
      "min": [
        -0.9984506368637085,
        -0.98980313539505,
        -0.9999106526374817
      ],
      "type": "VEC3"
    },
    {
      "bufferView": 0,
      "componentType": 5125,
      "count": 43488,
      "type": "SCALAR"
    }
  ],
  "asset": {
    "extras": {
      "author": "nishantbaria9 (https://sketchfab.com/nishantbaria9)",
      "license": "CC-BY-4.0 (http://creativecommons.org/licenses/by/4.0/)",
      "source": "https://sketchfab.com/3d-models/crescent-moon-fe437d3ab2f94187bda97cb23317c0bb",
      "title": "Crescent Moon"
    },
    "generator": "Sketchfab-16.60.0",
    "version": "2.0"
  },
  "bufferViews": [
    {
      "buffer": 0,
      "byteLength": 173952,
      "name": "floatBufferViews",
      "target": 34963
    },
    {
      "buffer": 0,
      "byteLength": 687888,
      "byteOffset": 173952,
      "byteStride": 12,
      "name": "floatBufferViews",
      "target": 34962
    }
  ],
  "buffers": [
    {
      "byteLength": 861840,
      "uri": "scene.bin"
    }
  ],
  "materials": [
    {
      "doubleSided": true,
      "name": "lambert2",
      "pbrMetallicRoughness": {
        "baseColorFactor": [
          0.5,
          0.5,
          0.5,
          1.0
        ],
        "metallicFactor": 0.0,
        "roughnessFactor": 0.6
      }
    }
  ],
  "meshes": [
    {
      "name": "CrescentMoon_lambert2_0",
      "primitives": [
        {
          "attributes": {
            "NORMAL": 1,
            "POSITION": 0
          },
          "indices": 2,
          "material": 0,
          "mode": 4
        }
      ]
    }
  ],
  "nodes": [
    {
      "children": [
        1
      ],
      "matrix": [
        1.0,
        0.0,
        0.0,
        0.0,
        0.0,
        2.220446049250313e-16,
        -1.0,
        0.0,
        0.0,
        1.0,
        2.220446049250313e-16,
        0.0,
        0.0,
        0.0,
        0.0,
        1.0
      ],
      "name": "Sketchfab_model"
    },
    {
      "children": [
        2
      ],
      "matrix": [
        0.009999999776482582,
        0.0,
        0.0,
        0.0,
        0.0,
        0.0,
        0.009999999776482582,
        0.0,
        0.0,
        -0.009999999776482582,
        0.0,
        0.0,
        0.0,
        0.0,
        0.0,
        1.0
      ],
      "name": "d3fb2ce9c8e04c808d58cf62028e2871.fbx"
    },
    {
      "children": [
        3
      ],
      "name": "RootNode"
    },
    {
      "children": [
        4
      ],
      "name": "CrescentMoon"
    },
    {
      "mesh": 0,
      "name": "CrescentMoon_lambert2_0"
    }
  ],
  "scene": 0,
  "scenes": [
    {
      "name": "Sketchfab_Scene",
      "nodes": [
        0
      ]
    }
  ]
}
